<?xml version="1.0" encoding="utf-8"?>
<!-- Generator: Adobe Illustrator 26.0.3, SVG Export Plug-In . SVG Version: 6.00 Build 0)  -->
<svg version="1.1" id="Layer_1" xmlns="http://www.w3.org/2000/svg" xmlns:xlink="http://www.w3.org/1999/xlink" x="0px" y="0px"
	 viewBox="0 0 68.63 68.63" style="enable-background:new 0 0 68.63 68.63;" xml:space="preserve">
<style type="text/css">
	.st0{fill:#FFFFFF;}
</style>
<g>
	<path class="st0" d="M41.75,40.51c2.2,0,3.92-1.96,3.96-4.44c0.04-2.48-1.72-4.48-3.96-4.48c-2.2,0-3.96,2.04-3.96,4.48
		C37.8,38.52,39.56,40.51,41.75,40.51z"/>
	<path class="st0" d="M27.04,40.51c2.24,0,3.96-2,4-4.44c0-2.48-1.76-4.48-4-4.48c-2.2,0-3.96,2.04-3.96,4.48
		C23.08,38.52,24.84,40.51,27.04,40.51z"/>
	<path class="st0" d="M34.32,68.63c18.96,0,34.32-15.36,34.32-34.32C68.63,15.36,53.27,0,34.32,0C15.36,0,0,15.36,0,34.32
		C0,53.23,15.36,68.59,34.32,68.63z M19.04,20.4c2.88-1.36,5.96-2.32,9.12-2.84c0.44,0.76,0.84,1.56,1.2,2.4
		c3.36-0.52,6.76-0.52,10.12,0c0.32-0.76,0.76-1.68,1.16-2.4c3.16,0.52,6.2,1.48,9.12,2.8c5,7.36,7.48,15.68,6.6,25.28
		c-3.36,2.52-7.16,4.4-11.2,5.64c-0.92-1.24-1.72-2.52-2.4-3.88c1.32-0.48,2.6-1.08,3.8-1.8c-0.32-0.24-0.6-0.48-0.92-0.72
		c-7.08,3.36-15.32,3.36-22.4,0c-0.32,0.24-0.6,0.48-0.92,0.72c1.2,0.72,2.44,1.32,3.76,1.8c-0.68,1.36-1.48,2.64-2.4,3.88
		c-4.04-1.2-7.8-3.12-11.2-5.64C11.72,37.36,13.28,29,19.04,20.4z"/>
</g>
</svg>
