<?xml version="1.0" encoding="utf-8"?>
<!-- Generator: Adobe Illustrator 26.0.3, SVG Export Plug-In . SVG Version: 6.00 Build 0)  -->
<svg version="1.1" id="Layer_1" xmlns="http://www.w3.org/2000/svg" xmlns:xlink="http://www.w3.org/1999/xlink" x="0px" y="0px"
	 viewBox="0 0 61.57 61.57" style="enable-background:new 0 0 61.57 61.57;" xml:space="preserve">
<style type="text/css">
	.st0{fill:#FFFFFF;}
</style>
<g>
	<path class="st0" d="M51.31,0H10.26C4.59,0,0,4.59,0,10.26v41.04c0,5.67,4.59,10.26,10.26,10.26h41.04
		c5.67,0,10.26-4.59,10.26-10.26V10.26C61.57,4.59,56.97,0,51.31,0z M56.44,51.31c0,2.83-2.3,5.13-5.13,5.13H10.26
		c-2.83,0-5.13-2.3-5.13-5.13V10.26c0-2.83,2.3-5.13,5.13-5.13h41.04c2.83,0,5.13,2.3,5.13,5.13V51.31z"/>
	<path class="st0" d="M30.78,15.39c-8.5,0-15.39,6.89-15.39,15.39s6.89,15.39,15.39,15.39s15.39-6.89,15.39-15.39
		S39.28,15.39,30.78,15.39z M30.78,41.04c-5.67,0-10.26-4.59-10.26-10.26s4.59-10.26,10.26-10.26s10.26,4.59,10.26,10.26
		S36.45,41.04,30.78,41.04z"/>
	<circle class="st0" cx="47.46" cy="14.11" r="3.85"/>
</g>
</svg>
