<?xml version="1.0" encoding="utf-8"?>
<svg version="1.1" xmlns="http://www.w3.org/2000/svg" width="42" height="40" viewBox="0 0 42 40">
<style type="text/css">
	.st0{fill:#FFFFFF;}
</style>
    <path class="st0" d="M7.5 27.1C6.9 27.1 6.2 26.9 5.7 26.5C-0.700004 21.5 -1.9 12.1 3.2 5.69999C5.6 2.59999 9.1 0.599986 13 0.0999862C16.9 -0.400014 20.8 0.699986 23.9 3.09999C30.3 8.09999 31.5 17.5 26.4 23.9C25.4 25.2 23.5 25.4 22.2 24.4C20.9 23.4 20.7 21.5 21.7 20.2C24.7 16.4 24 10.8 20.2 7.79999C18.3 6.29999 16 5.69999 13.7 5.99999C11.4 6.29999 9.3 7.49999 7.8 9.29999C4.8 13.1 5.5 18.7 9.3 21.7C10.6 22.7 10.8 24.6 9.8 25.9C9.3 26.7 8.4 27.1 7.5 27.1Z"></path>
    <path class="st0" d="M27.2 39.3C24 39.3 20.8 38.3 18.1 36.2C15 33.8 13 30.3 12.5 26.3C12 22.4 13.1 18.5 15.5 15.4C16.5 14.1 18.4 13.9 19.7 14.9C21 15.9 21.2 17.8 20.2 19.1C17.2 22.9 17.9 28.5 21.7 31.5C25.5 34.5 31.1 33.8 34.1 30C37.1 26.2 36.4 20.6 32.6 17.6C31.3 16.6 31.1 14.7 32.1 13.4C33.1 12.1 35 11.9 36.3 12.9C42.7 17.9 43.9 27.3 38.8 33.7C35.9 37.4 31.6 39.3 27.2 39.3Z"></path>
</svg>