<?xml version="1.0" encoding="utf-8"?>
<!-- Generator: Adobe Illustrator 26.0.3, SVG Export Plug-In . SVG Version: 6.00 Build 0)  -->
<svg version="1.1" id="Layer_1" xmlns="http://www.w3.org/2000/svg" xmlns:xlink="http://www.w3.org/1999/xlink" x="0px" y="0px"
	 viewBox="0 0 79.92 64.95" style="enable-background:new 0 0 79.92 64.95;" xml:space="preserve">
<style type="text/css">
	.st0{fill:#FFFFFF;}
</style>
<g id="layer1" transform="translate(-539.17946,-568.85777)">
	<path id="path3611" class="st0" d="M564.31,633.81c30.16,0,46.65-24.99,46.65-46.65c0-0.71-0.01-1.42-0.05-2.12
		c3.2-2.31,5.98-5.2,8.18-8.49c-2.94,1.31-6.1,2.18-9.42,2.58c3.39-2.03,5.98-5.24,7.21-9.07c-3.17,1.88-6.68,3.24-10.41,3.98
		c-2.99-3.19-7.25-5.18-11.97-5.18c-9.05,0-16.4,7.34-16.4,16.39c0,1.29,0.14,2.54,0.43,3.74c-13.63-0.69-25.71-7.21-33.8-17.13
		c-1.41,2.42-2.22,5.24-2.22,8.24c0,5.69,2.89,10.71,7.3,13.65c-2.69-0.08-5.22-0.82-7.43-2.05c0,0.07,0,0.14,0,0.21
		c0,7.94,5.65,14.57,13.15,16.07c-1.38,0.38-2.83,0.58-4.32,0.58c-1.05,0-2.08-0.1-3.08-0.3c2.09,6.51,8.14,11.26,15.32,11.39
		c-5.61,4.4-12.68,7.02-20.36,7.02c-1.32,0-2.63-0.08-3.91-0.23C546.44,631.09,555.05,633.81,564.31,633.81"/>
</g>
</svg>
