<?xml version="1.0" encoding="UTF-8" standalone="no"?>
<svg xmlns="http://www.w3.org/2000/svg" xml:space="preserve" style="enable-background:new 0 0 31.143 31.143;" viewBox="0 0 31.143 31.143" y="0px" x="0px" version="1.1">
<g transform="matrix(-1,0,0,1,31.142549,0)">
	<path d="m 0,15.571 c 0.001,1.702 1.383,3.081 3.085,3.083 l 17.528,-0.002 -4.738,4.739 c -1.283,1.284 -1.349,3.301 -0.145,4.507 1.205,1.201 3.222,1.138 4.507,-0.146 l 9.896,-9.898 c 1.287,-1.283 1.352,-3.301 0.146,-4.506 -0.033,-0.029 -0.068,-0.051 -0.1,-0.08 -0.041,-0.043 -0.07,-0.094 -0.113,-0.139 L 20.302,3.367 C 19.034,2.101 17.032,2.051 15.828,3.256 14.623,4.461 14.675,6.464 15.939,7.732 l 4.755,4.754 H 3.085 C 1.381,12.485 0,13.865 0,15.571 Z" />
</g>
</svg>
