<svg xmlns="http://www.w3.org/2000/svg" viewBox="0 0 302.18 185.63"><defs><style>.cls-1{fill:#fff;}</style></defs><g id="Calque_2" data-name="Calque 2"><g id="Calque_1-2" data-name="Calque 1"><path class="cls-1" d="M111.62,19.81c-24.82-2.5-51.89-4.74-75.18,6.12a60.85,60.85,0,0,0-26,22.78A71.2,71.2,0,0,0,.2,81.22a76.37,76.37,0,0,0,5.37,34.25,93,93,0,0,0,20,29.92c18.78,19.08,43.87,30.14,69.83,35.4A258.84,258.84,0,0,0,139,185.43a316.12,316.12,0,0,0,45.64-1.53,166.26,166.26,0,0,0,43.57-10.67A169.8,169.8,0,0,0,265,152.4c10.49-7.74,20.65-16.44,28-27.33,7.18-10.66,10.58-23.13,8.69-35.93-1.86-12.55-8.29-24.22-16.81-33.48-9.16-9.95-21-17.13-33.28-22.6-13.14-5.87-27-10.12-40.82-14Q188.61,12.81,166,8.61A510.69,510.69,0,0,0,74.29,0Q63.13,0,52,.43c-1.92.08-1.93,3.08,0,3A505.38,505.38,0,0,1,228.8,27.65c24.57,8,50.31,19.56,63.38,43.21,6,10.88,8.83,23.72,5.84,36s-11,22.45-20,30.94a169.19,169.19,0,0,1-32.48,23.72A150.79,150.79,0,0,1,206,177.17c-14.41,3.44-29.22,4.87-44,5.29a349.48,349.48,0,0,1-43.41-1.28c-26.9-2.59-53.92-9.65-76.23-25.44C23.19,142.15,7.69,122.06,3.9,98.42.42,76.66,6.79,52.49,23.71,37.69c19-16.6,45.86-17.86,69.79-16.41,6,.36,12.09.92,18.12,1.53,1.92.19,1.91-2.81,0-3Z"/></g></g></svg>