<?xml version="1.0" encoding="utf-8"?>
<!-- Generator: Adobe Illustrator 26.0.3, SVG Export Plug-In . SVG Version: 6.00 Build 0)  -->
<svg version="1.1" id="Layer_1" xmlns="http://www.w3.org/2000/svg" xmlns:xlink="http://www.w3.org/1999/xlink" x="0px" y="0px"
	 viewBox="0 0 466 90.29" style="enable-background:new 0 0 466 147.84;" xml:space="preserve">
<style type="text/css">
	.st0{fill:#FFFFFF;}
</style>
<g>
	<g>
		<path class="st0" d="M421.22,80.9c0,0-0.36,0-0.54,0c-19.86,0-35.94-16.07-35.94-35.94L466,44.78
			c-0.18-24.4-19.86-44.22-44.14-44.76V0.01l-0.55,0c-0.15,0-0.3-0.01-0.46-0.01c-0.15,0-0.3,0.01-0.45,0.01L369.94,0
			c-24.92,0-45.15,20.22-45.15,45.15c0,19.68-16.25,35.76-36.12,35.76h-7.05V45.15c0-24.74-20.59-44.97-45.15-44.97
			c-14.81,0-27.99,7.22-36.12,18.24V0h-8.85v90.29h8.85V45.15c0-19.86,16.07-35.94,35.94-35.94c19.86,0,35.94,16.07,35.94,35.94
			v45.15h0.03h9.36h8.41v-0.03c24.37-0.63,43.79-20.59,43.79-45.12c0-19.68,16.43-35.76,35.94-35.76l23.82-0.16
			c-10.77,8.25-17.69,21.27-17.69,35.91c0,24.92,20.04,44.97,44.97,44.97c0.06,0,1.41-0.02,1.81-0.04
			c19.88-0.7,36.37-14.16,41.6-32.48h-9.39C449.76,71.21,436.64,80.9,421.22,80.9z M419.01,9.07l2.68-0.02
			c16.33,0.45,29.76,11.67,33.65,26.89h-69.52C389.66,20.92,402.96,9.79,419.01,9.07z"/>
		<path class="st0" d="M175,57.59c-5.11,13.63-18.23,23.31-33.65,23.31c0,0-0.36,0-0.54,0c-19.86,0-35.94-16.07-35.94-35.94
			l43.32-0.1v-0.05h21.23l16.72-0.04c-0.18-24.07-19.32-43.69-43.14-44.73V0H88.3C63.38,0,43.16,20.22,43.16,45.15
			c0,19.68-16.25,35.76-36.12,35.76H0v9.39h7.22c24.92,0,44.97-20.22,44.97-45.15c0-19.68,16.43-35.76,35.94-35.76l25.57-0.14
			c-10.75,8.25-17.67,21.26-17.67,35.89c0,24.92,20.04,44.97,44.97,44.97c0.06,0,1.41-0.02,1.81-0.04
			c19.88-0.7,36.37-14.16,41.6-32.48H175z M138.32,9.12l4.59-0.02c15.84,0.91,28.76,11.96,32.57,26.84h-69.52
			C109.73,21.18,122.63,10.18,138.32,9.12z"/>
	</g>
</g>
</svg>
