<?xml version="1.0" encoding="utf-8"?>
<!-- Generator: Adobe Illustrator 26.0.3, SVG Export Plug-In . SVG Version: 6.00 Build 0)  -->
<svg version="1.1" id="Layer_1" xmlns="http://www.w3.org/2000/svg" xmlns:xlink="http://www.w3.org/1999/xlink" x="0px" y="0px"
	 viewBox="0 0 369.37 18.15" style="enable-background:new 0 0 369.37 18.15;" xml:space="preserve">
<style type="text/css">
	.st0{fill:#FFFFFF;}
</style>
<g>
	<g>
		<path class="st0" d="M1.45,13.07c24.9-0.19,49.79-0.17,74.69,0.06c25.02,0.23,50.03,0.67,75.04,1.32
			c24.67,0.64,49.33,1.52,73.98,2.52c22.93,0.94,45.9,1.79,68.83,0.57c22.42-1.2,44.88-4.42,66.22-11.59
			c2.74-0.92,5.45-1.91,8.14-2.95c1.78-0.69,1.01-3.59-0.8-2.89c-21.18,8.21-43.64,12.29-66.23,13.97
			c-22.67,1.68-45.43,1.1-68.12,0.22c-24.41-0.95-48.82-1.93-73.24-2.61c-24.89-0.69-49.78-1.18-74.68-1.46S35.5,9.88,10.6,10.02
			c-3.05,0.02-6.1,0.04-9.15,0.06C-0.48,10.09-0.49,13.09,1.45,13.07L1.45,13.07z"/>
	</g>
</g>
</svg>
